<?xml version="1.0" encoding="UTF-8" standalone="no"?>
<svg
   xmlns:dc="http://purl.org/dc/elements/1.1/"
   xmlns:cc="http://creativecommons.org/ns#"
   xmlns:rdf="http://www.w3.org/1999/02/22-rdf-syntax-ns#"
   xmlns:svg="http://www.w3.org/2000/svg"
   xmlns="http://www.w3.org/2000/svg"
   xmlns:sodipodi="http://sodipodi.sourceforge.net/DTD/sodipodi-0.dtd"
   xmlns:inkscape="http://www.inkscape.org/namespaces/inkscape"
   width="104.71857mm"
   height="112.43353mm"
   viewBox="0 0 104.71857 112.43353"
   version="1.1"
   id="svg1289"
   inkscape:version="1.0.2 (e86c870879, 2021-01-15)"
   sodipodi:docname="box-car.svg">
  <defs
     id="defs1283" />
  <sodipodi:namedview
     id="base"
     pagecolor="#ffffff"
     bordercolor="#666666"
     borderopacity="1.0"
     inkscape:pageopacity="0.0"
     inkscape:pageshadow="2"
     inkscape:zoom="0.35"
     inkscape:cx="269.32192"
     inkscape:cy="303.90138"
     inkscape:document-units="mm"
     inkscape:current-layer="layer1"
     inkscape:document-rotation="0"
     showgrid="false"
     inkscape:window-width="1024"
     inkscape:window-height="717"
     inkscape:window-x="0"
     inkscape:window-y="25"
     inkscape:window-maximized="0" />
  <metadata
     id="metadata1286">
    <rdf:RDF>
      <cc:Work
         rdf:about="">
        <dc:format>image/svg+xml</dc:format>
        <dc:type
           rdf:resource="http://purl.org/dc/dcmitype/StillImage" />
        <dc:title></dc:title>
      </cc:Work>
    </rdf:RDF>
  </metadata>
  <g
     inkscape:label="Layer 1"
     inkscape:groupmode="layer"
     id="layer1"
     transform="translate(-34.575241,-67.759428)">
    <g
       id="g1307">
      <path
         d="m 87.800006,160.08299 c 0.01446,-4.5159 -2.962275,-7.96501 -6.8707,-7.96184 -3.823758,0.003 -7.021336,3.63397 -6.980414,7.92763 0.04233,4.42171 3.146425,7.989 6.955014,7.99253 3.903486,0.004 6.881989,-3.43323 6.8961,-7.95832 m -0.924278,-19.16747 c -2.26695,-7.68209 -4.354336,-14.76692 -6.448072,-21.84964 -2.0955,-7.08766 -4.196997,-14.1732 -6.382808,-21.553314 6.839655,-2.732617 13.51668,-5.400675 20.376797,-8.141406 4.8006,16.21331 9.540875,32.22237 14.372525,48.5394 -5.55026,2.23978 -10.802061,4.35927 -16.059509,6.48088 1.694039,4.65349 2.688873,5.24298 6.431845,3.7592 10.414354,-4.12821 20.820594,-8.28287 31.230714,-12.42519 0.92357,-0.36759 1.83762,-0.77717 2.77777,-1.07597 2.75696,-0.87595 5.05284,0.3676 5.86246,3.12738 0.80822,2.75448 -0.32103,5.45147 -3.01413,6.56448 -6.52075,2.69523 -13.08276,5.25675 -19.62891,7.86942 -5.3728,2.14418 -10.73785,4.31306 -16.12618,6.40362 -1.308099,0.5073 -1.93428,1.15429 -2.082446,2.96792 -0.776112,9.49219 -6.503106,16.71885 -14.251517,18.30635 -7.578372,1.55257 -15.183202,-2.94464 -18.601972,-11.00067 -3.490736,-8.22643 -1.817511,-17.71756 4.392789,-24.08238 1.141589,-1.16981 1.317978,-2.15688 0.848783,-3.71369 -6.081888,-20.19547 -12.150019,-40.39658 -18.148652,-60.625566 -0.571853,-1.927931 -1.456972,-2.492728 -3.111853,-2.426053 -3.106913,0.124884 -6.22053,0.06562 -9.330972,0.03034 -3.370086,-0.0381 -5.464174,-2.108905 -5.405966,-5.269794 0.05539,-3.008842 2.149122,-5.008387 5.340703,-5.027084 4.443941,-0.0254 8.887883,-0.01023 13.332177,-0.0056 3.99415,0.0039 4.96323,0.767292 6.256161,5.080354 6.202539,20.692533 12.438239,41.372363 18.538472,62.105113 0.959203,3.26037 1.894769,5.84623 5.470877,5.30719 0.903464,-0.13617 1.876073,0.34396 3.360914,0.65475"
         style="fill:#0d2249;fill-opacity:1;fill-rule:nonzero;stroke:none;stroke-width:0.352778"
         id="path94" />
      <path
         d="m 138.45396,126.16637 c -6.82166,2.7111 -13.40062,5.32518 -20.2498,8.04722 -4.81682,-16.25494 -9.52747,-32.15287 -14.38663,-48.5521 2.20804,-0.744714 4.29472,-1.368778 6.33554,-2.153003 3.92077,-1.507067 7.82602,-3.071283 11.71716,-4.679597 1.82562,-0.754239 2.83175,-0.03492 3.43041,2.016478 4.22487,14.470591 8.48113,28.929192 12.72187,43.393432 0.13935,0.47519 0.22014,0.97331 0.43145,1.92757"
         style="fill:#0d2249;fill-opacity:1;fill-rule:nonzero;stroke:none;stroke-width:0.352778"
         id="path180" />
    </g>
  </g>
</svg>
