<?xml version="1.0" encoding="UTF-8" standalone="no"?>
<svg
   xmlns:dc="http://purl.org/dc/elements/1.1/"
   xmlns:cc="http://creativecommons.org/ns#"
   xmlns:rdf="http://www.w3.org/1999/02/22-rdf-syntax-ns#"
   xmlns:svg="http://www.w3.org/2000/svg"
   xmlns="http://www.w3.org/2000/svg"
   xmlns:sodipodi="http://sodipodi.sourceforge.net/DTD/sodipodi-0.dtd"
   xmlns:inkscape="http://www.inkscape.org/namespaces/inkscape"
   width="95.607765mm"
   height="109.54846mm"
   viewBox="0 0 95.607765 109.54846"
   version="1.1"
   id="svg1425"
   inkscape:version="1.0.2 (e86c870879, 2021-01-15)"
   sodipodi:docname="milk-run.svg">
  <defs
     id="defs1419" />
  <sodipodi:namedview
     id="base"
     pagecolor="#ffffff"
     bordercolor="#666666"
     borderopacity="1.0"
     inkscape:pageopacity="0.0"
     inkscape:pageshadow="2"
     inkscape:zoom="0.35"
     inkscape:cx="138.52357"
     inkscape:cy="196.28491"
     inkscape:document-units="mm"
     inkscape:current-layer="layer1"
     inkscape:document-rotation="0"
     showgrid="false"
     inkscape:window-width="1024"
     inkscape:window-height="717"
     inkscape:window-x="0"
     inkscape:window-y="25"
     inkscape:window-maximized="0" />
  <metadata
     id="metadata1422">
    <rdf:RDF>
      <cc:Work
         rdf:about="">
        <dc:format>image/svg+xml</dc:format>
        <dc:type
           rdf:resource="http://purl.org/dc/dcmitype/StillImage" />
        <dc:title></dc:title>
      </cc:Work>
    </rdf:RDF>
  </metadata>
  <g
     inkscape:label="Layer 1"
     inkscape:groupmode="layer"
     id="layer1"
     transform="translate(-69.182305,-96.232951)">
    <g
       id="g1402"
       transform="matrix(0.35277777,0,0,-0.35277777,141.61603,185.22767)">
      <path
         d="m 0,0 c 3.433,17.522 6.45,34.625 10.223,51.502 2.082,9.311 -0.091,15.586 -6.027,22.222 -22.186,24.801 -47.851,42.343 -77.268,52.836 -8.507,3.034 -16.756,3.002 -25.196,-0.039 -30.892,-11.136 -57.804,-29.711 -80.288,-56.816 -3.28,-3.955 -4.629,-7.685 -3.34,-13.228 5.285,-22.75 10.345,-45.573 15.336,-68.413 6.306,-28.85 21.054,-52.63 35.172,-76.508 10.389,-17.571 26.324,-28.445 42.42,-38.235 1.975,-1.201 5.51,-0.728 7.64,0.525 5.586,3.286 10.773,7.475 16.162,11.221 3.895,2.707 6.873,2.462 8.969,-3.084 1.996,-5.28 4.666,-10.218 7.83,-17.003 -9.965,-6.362 -19.612,-13.813 -30.148,-18.674 -4.869,-2.246 -12.184,-1.241 -17.174,1.388 -23.783,12.531 -43.791,30.741 -57.916,56.679 -8.425,15.47 -18.034,30.365 -24.56,46.872 -14.273,36.097 -24.209,73.976 -27.854,113.671 -0.399,4.357 1.202,10.137 3.665,13.491 27.192,37.018 61.258,61.724 101.645,74.882 15.941,5.194 30.992,0.863 45.751,-5.531 32.386,-14.032 60.416,-35.599 83.721,-65.4 C 33.982,75.684 36.13,68.749 34.521,60.067 31.092,41.566 27.672,23.063 24.328,4.541 23.468,-0.227 21.837,-2.256 17.073,-1.206 11.712,-0.024 6.101,-0.36 0,0"
         style="fill:#0d2249;fill-opacity:1;fill-rule:nonzero;stroke:none"
         id="path144"
         transform="translate(0.75593233,96.672834)" />
      <path
         d="m 0,0 c -2.776,3.102 -6.478,9.431 -11.621,12.344 -4.855,2.749 -11.226,1.904 -16.93,2.64 -0.309,-0.921 -0.618,-1.841 -0.928,-2.762 C -18.508,0.689 -7.537,-10.843 3.773,-22.733 19.656,-3.617 36.667,16.856 54.617,38.461 45.043,39.805 37.79,40.957 30.866,32.453 21.416,20.846 10.478,10.863 0,0 m 65.69,14.048 c 0.08,-36.687 -25.148,-66.157 -56.835,-66.397 -31.449,-0.236 -57.178,29.286 -57.41,65.87 -0.227,35.964 25.385,66.184 56.191,66.297 32.439,0.12 57.976,-28.81 58.054,-65.77"
         style="fill:#0d2249;fill-opacity:1;fill-rule:nonzero;stroke:none"
         id="path160"
         transform="translate(7.3104979e-6)" />
      <path
         d="m 0,0 c -5.467,-6.116 -9.945,-11.127 -14.706,-16.452 -2.968,2.451 -5.509,5.49 -8.602,6.883 -4.55,2.048 -9.736,4.628 -14.201,3.783 -3.895,-0.736 -9.009,-5.215 -10.137,-9.314 -0.92,-3.345 2.552,-9.346 5.365,-12.737 2.629,-3.168 6.935,-4.49 10.535,-6.55 6.309,-3.61 12.896,-6.671 18.915,-10.838 13.378,-9.261 18.29,-23.564 16.218,-41.026 -1.922,-16.199 -9.464,-27.672 -23.475,-31.691 -7.895,-2.266 -4.767,-8.774 -5.153,-13.905 -0.398,-5.299 0.429,-10.835 -6.735,-10.546 -4.363,0.176 -6.999,1.588 -6.257,7.024 1.545,11.318 -2.606,16.261 -12.094,19.688 -8.205,2.964 -15.246,10.252 -23.304,15.987 5.111,7.239 8.884,12.583 13.189,18.678 3.42,-3.621 6.228,-8.2 10.051,-10.283 6.333,-3.451 13.301,-7.206 20.036,-7.291 6.966,-0.088 12.3,6.499 14.353,14.685 2.171,8.655 -2.03,15.062 -7.777,19.135 -9.202,6.523 -19.093,11.724 -28.522,17.836 -9.525,6.177 -15.744,15.578 -16.672,28.307 -1.262,17.35 7.203,30.267 21.858,34.868 2.397,0.754 4.804,1.469 7.27,2.221 0.417,4.357 0.799,8.341 1.225,12.797 h 11.98 c 0.395,-0.66 0.948,-1.161 0.904,-1.575 -1.005,-9.339 1.953,-14.577 10.235,-17.522 C -10.112,10.246 -5.701,4.645 0,0"
         style="fill:#0d2249;fill-opacity:1;fill-rule:nonzero;stroke:none"
         id="path200"
         transform="translate(-49.423794,155.08689)" />
      <path
         d="m 0,0 c 10.478,10.863 21.416,20.846 30.866,32.453 6.924,8.504 14.177,7.352 23.751,6.008 C 36.667,16.856 19.656,-3.617 3.773,-22.733 c -11.31,11.89 -22.281,23.422 -33.252,34.955 0.31,0.921 0.619,1.841 0.928,2.762 5.704,-0.736 12.075,0.109 16.93,-2.64 C -6.478,9.431 -2.776,3.102 0,0"
         style="fill:#ffffff;fill-opacity:1;fill-rule:nonzero;stroke:none"
         id="path464" />
    </g>
  </g>
</svg>
