<?xml version="1.0" encoding="UTF-8" standalone="no"?>
<svg
   xmlns:dc="http://purl.org/dc/elements/1.1/"
   xmlns:cc="http://creativecommons.org/ns#"
   xmlns:rdf="http://www.w3.org/1999/02/22-rdf-syntax-ns#"
   xmlns:svg="http://www.w3.org/2000/svg"
   xmlns="http://www.w3.org/2000/svg"
   xmlns:sodipodi="http://sodipodi.sourceforge.net/DTD/sodipodi-0.dtd"
   xmlns:inkscape="http://www.inkscape.org/namespaces/inkscape"
   width="116.60101mm"
   height="83.027786mm"
   viewBox="0 0 116.60101 83.027786"
   version="1.1"
   id="svg952"
   inkscape:version="1.0.2 (e86c870879, 2021-01-15)"
   sodipodi:docname="truck.svg">
  <defs
     id="defs946" />
  <sodipodi:namedview
     id="base"
     pagecolor="#ffffff"
     bordercolor="#666666"
     borderopacity="1.0"
     inkscape:pageopacity="0.0"
     inkscape:pageshadow="2"
     inkscape:zoom="0.35"
     inkscape:cx="252.18813"
     inkscape:cy="266.31035"
     inkscape:document-units="mm"
     inkscape:current-layer="layer1"
     inkscape:document-rotation="0"
     showgrid="false"
     inkscape:window-width="1024"
     inkscape:window-height="717"
     inkscape:window-x="0"
     inkscape:window-y="25"
     inkscape:window-maximized="0" />
  <metadata
     id="metadata949">
    <rdf:RDF>
      <cc:Work
         rdf:about="">
        <dc:format>image/svg+xml</dc:format>
        <dc:type
           rdf:resource="http://purl.org/dc/dcmitype/StillImage" />
        <dc:title></dc:title>
      </cc:Work>
    </rdf:RDF>
  </metadata>
  <g
     inkscape:label="Layer 1"
     inkscape:groupmode="layer"
     id="layer1"
     transform="translate(-39.108558,-77.705387)">
    <g
       id="g944"
       transform="matrix(0.35277777,0,0,-0.35277777,69.695571,144.80169)">
      <path
         d="m 0,0 v 0.027 c 6.8,0 13.697,-0.772 20.351,0.368 2.786,0.477 5.054,5.008 7.558,7.697 -2.577,2.575 -5.067,7.224 -7.746,7.375 -13.316,0.751 -26.7,0.738 -40.013,-0.059 -2.601,-0.156 -4.993,-4.973 -7.482,-7.64 2.563,-2.59 4.898,-6.917 7.735,-7.415 C -13.196,-0.771 -6.548,0 0,0 m -12.651,54.613 c -10.322,0 -20.644,-0.077 -30.964,0.034 -4.758,0.051 -9.18,-1.227 -9.294,-7.475 -0.122,-6.712 4.435,-8.315 9.482,-8.306 20.643,0.038 41.285,0.026 61.928,0.044 5.012,0.005 9.601,1.539 9.271,8.449 -0.299,6.285 -4.771,7.334 -9.46,7.29 C 7.992,54.552 -2.33,54.619 -12.651,54.613 M -24.765,93.36 c -15.093,0 -30.186,-0.024 -45.279,0.015 -4.499,0.012 -8.484,-1.487 -8.572,-7.333 -0.094,-6.285 3.853,-7.952 8.788,-7.938 29.431,0.084 58.863,0.062 88.294,-0.011 4.692,-0.012 9.168,0.925 9.301,7.33 0.145,6.989 -4.521,8.014 -9.517,7.982 C 3.913,93.313 -10.426,93.372 -24.765,93.36 M 112.963,28.412 v -0.035 c 6.8,0 13.603,-0.153 20.399,0.041 7.629,0.217 9.085,2.454 6.991,10.67 -2.279,8.94 -4.821,17.788 -7.179,26.702 -1.71,6.466 -5.517,9.46 -11.239,9.459 -11.334,-0.002 -22.668,-0.053 -34.001,0.004 -6.559,0.034 -9.088,-3.824 -8.354,-11.089 0.848,-8.395 1.835,-16.776 2.465,-25.193 0.534,-7.125 3.729,-10.519 9.763,-10.551 7.051,-0.036 14.103,-0.008 21.155,-0.008 M 59.702,93.414 c 7.105,0.929 12.921,2.475 18.696,2.293 15.351,-0.486 30.686,-1.67 46.023,-2.668 9.723,-0.632 16.486,-6.36 20.529,-16.518 3.794,-9.53 7.992,-18.883 11.234,-28.661 5.364,-16.18 14.63,-27.962 28.343,-34.426 15.193,-7.161 21.568,-19.561 20.182,-38.39 -0.768,-10.429 0.02,-20.999 -0.241,-31.495 -0.213,-8.605 -4.995,-14.746 -12.107,-14.941 -13.573,-0.371 -27.159,-0.108 -41.099,-0.108 -5.387,26.023 -18.616,41.785 -42.27,41.29 C 89.901,-30.609 77.875,-44.347 70.784,-71.086 H 1.265 c -0.919,3.575 -1.677,7.244 -2.794,10.76 -5.85,18.408 -21.301,30.763 -37.88,30.419 -17.14,-0.354 -32.332,-13.087 -37.047,-32.619 -1.792,-7.424 -4.501,-9.613 -10.771,-9.16 -8.28,0.6 -16.622,-0.047 -24.929,0.201 -7.402,0.221 -12.216,5.474 -13.28,13.82 -1.089,8.55 2.491,16.923 9.422,18.463 5.901,1.312 5.52,5.188 5.516,9.987 -0.044,45.224 -0.042,90.447 -0.02,135.671 0.008,16.164 3.968,20.708 18.05,20.714 45.091,0.02 90.182,0.019 135.273,-0.011 12.492,-0.009 16.785,-4.996 16.89,-19.443 0.038,-5.193 0.007,-10.387 0.007,-14.302"
         style="fill:#0d2249;fill-opacity:1;fill-rule:nonzero;stroke:none"
         id="path34"
         transform="translate(38.925298,63.010726)" />
      <path
         d="m 0,0 c -0.141,6.984 -5.252,12.808 -11.204,12.766 -6.33,-0.046 -11.289,-6.279 -10.982,-13.804 0.284,-6.954 5.653,-12.716 11.512,-12.354 C -4.7,-13.021 0.14,-6.95 0,0 m 16.264,0.007 c 0.102,-18.122 -12.02,-32.353 -27.541,-32.331 -14.921,0.022 -27.35,14.252 -27.686,31.698 -0.335,17.37 12.647,32.389 27.923,32.305 C 4.272,31.594 16.164,17.8 16.264,0.007"
         style="fill:#0d2249;fill-opacity:1;fill-rule:nonzero;stroke:none"
         id="path232"
         transform="translate(161.0708,-12.788101)" />
      <path
         d="m 0,0 c -5.783,-0.031 -11.018,-6.023 -11.124,-12.733 -0.114,-7.142 5.284,-13.587 11.28,-13.47 6.102,0.119 11.348,6.562 11.123,13.662 C 11.064,-5.767 5.849,0.032 0,0 m 27.655,-13.018 c 0.047,-17.925 -12.319,-32.187 -27.868,-32.142 -14.757,0.043 -27.352,14.712 -27.495,32.023 -0.144,17.503 12.77,32.215 28.137,32.054 15.131,-0.159 27.18,-14.292 27.226,-31.935"
         style="fill:#0d2249;fill-opacity:1;fill-rule:nonzero;stroke:none"
         id="path236" />
    </g>
  </g>
</svg>
