<?xml version="1.0" encoding="UTF-8" standalone="no"?>
<svg
   xmlns:dc="http://purl.org/dc/elements/1.1/"
   xmlns:cc="http://creativecommons.org/ns#"
   xmlns:rdf="http://www.w3.org/1999/02/22-rdf-syntax-ns#"
   xmlns:svg="http://www.w3.org/2000/svg"
   xmlns="http://www.w3.org/2000/svg"
   xmlns:sodipodi="http://sodipodi.sourceforge.net/DTD/sodipodi-0.dtd"
   xmlns:inkscape="http://www.inkscape.org/namespaces/inkscape"
   width="95.033524mm"
   height="114.67569mm"
   viewBox="0 0 95.033524 114.67569"
   version="1.1"
   id="svg716"
   inkscape:version="1.0.2 (e86c870879, 2021-01-15)"
   sodipodi:docname="bar-code.svg">
  <defs
     id="defs710" />
  <sodipodi:namedview
     id="base"
     pagecolor="#ffffff"
     bordercolor="#666666"
     borderopacity="1.0"
     inkscape:pageopacity="0.0"
     inkscape:pageshadow="2"
     inkscape:zoom="0.35"
     inkscape:cx="780.7687"
     inkscape:cy="129.73249"
     inkscape:document-units="mm"
     inkscape:current-layer="layer1"
     inkscape:document-rotation="0"
     showgrid="false"
     inkscape:window-width="1024"
     inkscape:window-height="717"
     inkscape:window-x="0"
     inkscape:window-y="25"
     inkscape:window-maximized="0" />
  <metadata
     id="metadata713">
    <rdf:RDF>
      <cc:Work
         rdf:about="">
        <dc:format>image/svg+xml</dc:format>
        <dc:type
           rdf:resource="http://purl.org/dc/dcmitype/StillImage" />
        <dc:title></dc:title>
      </cc:Work>
    </rdf:RDF>
  </metadata>
  <g
     inkscape:label="Layer 1"
     inkscape:groupmode="layer"
     id="layer1"
     transform="translate(-18.766082,-152.20147)">
    <g
       id="g824"
       transform="matrix(0.35277777,0,0,-0.35277777,78.12934,203.47648)">
      <path
         d="m 0,0 c -0.134,-37.175 26.63,-68.371 58.509,-68.199 31.882,0.172 58.305,30.574 58.478,67.284 C 117.164,36.67 91.122,67.355 58.906,67.521 26.573,67.688 0.134,37.383 0,0 m -17.823,196.889 c 13.025,0 25.059,0.063 37.092,-0.029 5.326,-0.04 4.012,-4.917 4.022,-8.357 0.085,-29.471 0.049,-58.943 0.049,-88.415 V 89.701 c 13.456,1.065 14.756,2.607 14.757,16.757 0.002,26.554 10e-4,53.108 10e-4,79.662 v 10.23 c 3.1,0.236 5.569,0.261 7.996,0.642 5.864,0.92 7.953,-1.708 7.882,-8.718 -0.273,-27.133 -0.108,-54.273 -0.071,-81.41 0.004,-3.133 0.225,-6.266 0.372,-10.1 h 16.539 c 0,3.157 0.002,6.544 0,9.929 -0.015,27.43 0.096,54.86 -0.144,82.286 -0.052,5.991 1.338,8.463 6.789,8.08 6.72,-0.473 13.484,-0.113 21.052,-0.113 v -21.793 c 0,-25.678 0.334,-51.365 -0.182,-77.03 -0.181,-9 1.049,-15.815 8.703,-19.674 1.994,-1.006 3.657,-2.892 6.663,-5.345 0.2,4.163 0.466,7.136 0.469,10.11 0.029,34.724 0.224,69.452 -0.137,104.171 -0.081,7.76 1.74,10.212 8.461,9.774 6.192,-0.404 10.697,0.326 10.572,-10.153 -0.537,-44.636 -0.33,-89.287 -0.111,-133.931 0.026,-5.339 1.161,-10.942 2.836,-15.951 9.033,-27.019 8.795,-53.647 -2.392,-79.645 -2.634,-6.123 -1.904,-9.626 2.232,-14.135 10.085,-10.992 19.596,-22.689 29.525,-33.878 4.877,-5.495 4.699,-10.312 -0.125,-15.6 -5.303,-5.814 -10.447,-11.829 -15.548,-17.883 -4.449,-5.28 -8.499,-5.025 -12.922,0.209 -10.042,11.885 -20.372,23.445 -30.362,35.386 -3.29,3.933 -5.771,4.399 -10.284,1.783 -30.981,-17.944 -67.642,-12.129 -93.015,14.182 -25.65,26.6 -34.465,67.392 -23.026,105.484 1.369,4.562 2.193,9.593 2.211,14.411 0.162,46.104 0.096,92.208 0.096,138.312 z"
         style="fill:#0d2249;fill-opacity:1;fill-rule:nonzero;stroke:none"
         id="path78"
         transform="translate(-67.615703,-51.861289)" />
      <path
         d="m 0,0 c 7.913,0 15.387,0.299 22.816,-0.238 1.598,-0.116 3.472,-2.992 4.401,-5.084 0.72,-1.619 0.177,-3.999 0.177,-6.04 0.001,-70.3 0.003,-140.598 -0.002,-210.897 0,-12.151 -0.015,-12.151 -10.052,-12.181 -17.678,-0.053 -17.675,-0.053 -17.678,20.721 -0.009,68.257 -0.024,136.514 -0.017,204.771 0,2.555 0.197,5.111 0.355,8.948"
         style="fill:#0d2249;fill-opacity:1;fill-rule:nonzero;stroke:none"
         id="path196"
         transform="translate(-167.917,145.05707)" />
      <path
         d="m 0,0 c -17.373,-3.595 -17.708,-3.28 -17.708,15.725 0,68.554 0,137.109 0,205.664 v 11.216 H 0 Z"
         style="fill:#0d2249;fill-opacity:1;fill-rule:nonzero;stroke:none"
         id="path208"
         transform="translate(-106.979,-88.237265)" />
      <path
         d="m 0,0 v -16.076 c -23.947,-3.097 -36.976,-19.013 -40.372,-46.071 H -54.051 C -57.433,-29.762 -26.984,3.909 0,0"
         style="fill:#0d2249;fill-opacity:1;fill-rule:nonzero;stroke:none"
         id="path516" />
    </g>
  </g>
</svg>
