<?xml version="1.0" encoding="UTF-8" standalone="no"?>
<svg
   xmlns:dc="http://purl.org/dc/elements/1.1/"
   xmlns:cc="http://creativecommons.org/ns#"
   xmlns:rdf="http://www.w3.org/1999/02/22-rdf-syntax-ns#"
   xmlns:svg="http://www.w3.org/2000/svg"
   xmlns="http://www.w3.org/2000/svg"
   xmlns:sodipodi="http://sodipodi.sourceforge.net/DTD/sodipodi-0.dtd"
   xmlns:inkscape="http://www.inkscape.org/namespaces/inkscape"
   width="92.381889mm"
   height="124.4232mm"
   viewBox="0 0 92.381889 124.4232"
   version="1.1"
   id="svg328"
   inkscape:version="1.0.2 (e86c870879, 2021-01-15)"
   sodipodi:docname="box-man.svg">
  <defs
     id="defs322" />
  <sodipodi:namedview
     id="base"
     pagecolor="#ffffff"
     bordercolor="#666666"
     borderopacity="1.0"
     inkscape:pageopacity="0.0"
     inkscape:pageshadow="2"
     inkscape:zoom="0.35"
     inkscape:cx="174.57994"
     inkscape:cy="235.13046"
     inkscape:document-units="mm"
     inkscape:current-layer="layer1"
     inkscape:document-rotation="0"
     showgrid="false"
     inkscape:window-width="1024"
     inkscape:window-height="717"
     inkscape:window-x="0"
     inkscape:window-y="25"
     inkscape:window-maximized="0" />
  <metadata
     id="metadata325">
    <rdf:RDF>
      <cc:Work
         rdf:about="">
        <dc:format>image/svg+xml</dc:format>
        <dc:type
           rdf:resource="http://purl.org/dc/dcmitype/StillImage" />
        <dc:title></dc:title>
      </cc:Work>
    </rdf:RDF>
  </metadata>
  <g
     inkscape:label="Layer 1"
     inkscape:groupmode="layer"
     id="layer1"
     transform="translate(-59.642392,-85.955065)">
    <g
       id="g304"
       transform="matrix(0.35277777,0,0,-0.35277777,111.40154,170.92498)">
      <path
         d="m 0,0 h -168.661 v -159.004 c 1.439,-0.267 2.396,-0.599 3.354,-0.6 36.613,-0.073 73.225,-0.117 109.838,-0.16 15.787,-0.018 31.593,0.493 47.351,-0.299 6.175,-0.31 7.993,1.355 7.969,8.315 -0.118,33.543 0.082,67.087 0.144,100.63 C 0.025,-34.378 0,-17.638 0,0 m -84.894,22.544 c 29.451,0.001 58.902,0.014 88.353,-0.005 12.387,-0.008 15.211,-3.43 14.565,-17.325 -0.52,-11.168 0.259,-21.514 6.252,-31.495 6.551,-10.91 11.591,-23.148 16.508,-35.233 4.913,-12.073 6.191,-24.963 4.572,-38.39 -2.218,-18.394 -2.865,-37.184 -10.526,-54.068 -4.397,-9.689 -8.428,-20.274 -18.557,-23.753 -5.328,-1.829 -11.018,-2.365 -16.581,-3.124 -4.44,-0.605 -8.939,-0.968 -13.406,-0.914 -21.219,0.259 -42.435,1.013 -63.652,0.997 -31.303,-0.023 -62.613,-0.195 -93.906,-1.035 -12.797,-0.343 -22.447,5.352 -28.135,17.82 -16.269,35.662 -23.392,72.555 -7.628,111.28 3.432,8.43 6.788,17.054 11.295,24.707 5.982,10.155 8.033,20.793 7.516,32.901 -0.591,13.83 3.098,17.625 14.984,17.631 29.448,0.015 58.897,0.005 88.346,0.006"
         style="fill:#0d2249;fill-opacity:1;fill-rule:nonzero;stroke:none"
         id="path126"
         transform="translate(69.131797,69.979509)" />
      <path
         d="m 0,0 h -105.634 c -0.153,0.483 -0.305,0.966 -0.458,1.449 2.599,1.058 5.16,2.269 7.805,3.14 4.829,1.591 9.85,2.533 14.538,4.539 13.691,5.861 15.738,17.35 6.845,30.598 -14.136,21.056 -18.259,45.153 -12.546,70.935 2.968,13.392 11.024,22.703 22.858,25.067 8.473,1.691 17.629,2.132 26.021,0.303 15.387,-3.354 24.694,-16.815 26.008,-35.008 1.698,-23.511 -2.52,-45.052 -16.06,-63.569 -6.747,-9.226 -4.948,-19.7 4.061,-25.766 2.768,-1.864 5.973,-2.951 9.071,-4.035 C -11.571,5.582 -5.584,3.768 0.375,1.847 0.25,1.231 0.125,0.615 0,0"
         style="fill:#0d2249;fill-opacity:1;fill-rule:nonzero;stroke:none"
         id="path184"
         transform="translate(37.154271,103.64551)" />
      <path
         d="m 0,0 c -4.349,-0.423 -7.061,-0.687 -10.574,-1.028 v -39.575 c -11.975,-3.062 -14.585,-0.857 -14.601,11.456 -0.009,6.407 -0.332,12.842 0.077,19.214 0.49,7.614 -1.612,11.927 -10.314,11.05 5.302,7.879 9.65,14.796 14.523,21.174 0.91,1.189 4.948,1.23 5.813,0.069 C -10.031,15.595 -5.502,8.313 0,0"
         style="fill:#0d2249;fill-opacity:1;fill-rule:nonzero;stroke:none"
         id="path544"
         transform="translate(-16.505906,1.2030825)" />
      <path
         d="m 0,0 v -11.593 c -1.66,-0.367 -3.074,-0.95 -4.489,-0.954 -23.861,-0.062 -47.723,0.023 -71.584,-0.133 -4.28,-0.027 -5.806,1.914 -5.694,6.703 0.096,4.125 0.163,7.459 5.026,7.415 C -51.879,1.214 -27.016,1.189 -2.154,1.04 -1.482,1.036 -0.812,0.408 0,0"
         style="fill:#0d2249;fill-opacity:1;fill-rule:nonzero;stroke:none"
         id="path548"
         transform="translate(26.968671,-52.475619)" />
      <path
         d="M 0,0 C -3.537,0.423 -6.463,0.772 -11.149,1.333 -4.795,10.078 0.69,17.627 7.075,26.414 14.068,17.865 20.151,10.431 26.186,3.054 25.169,1.727 24.809,0.918 24.544,0.958 16.145,2.232 14.581,-2.863 15.07,-11.316 c 0.416,-7.185 -0.643,-14.467 -0.726,-21.711 -0.082,-7.144 -4.203,-6.633 -8.372,-6.612 -4.704,0.025 -4.797,3.147 -4.811,7.564 C 1.128,-21.665 0.451,-11.258 0,0"
         style="fill:#0d2249;fill-opacity:1;fill-rule:nonzero;stroke:none"
         id="path552" />
    </g>
  </g>
</svg>
