<?xml version="1.0" encoding="UTF-8" standalone="no"?>
<svg
   xmlns:dc="http://purl.org/dc/elements/1.1/"
   xmlns:cc="http://creativecommons.org/ns#"
   xmlns:rdf="http://www.w3.org/1999/02/22-rdf-syntax-ns#"
   xmlns:svg="http://www.w3.org/2000/svg"
   xmlns="http://www.w3.org/2000/svg"
   xmlns:sodipodi="http://sodipodi.sourceforge.net/DTD/sodipodi-0.dtd"
   xmlns:inkscape="http://www.inkscape.org/namespaces/inkscape"
   width="106.4056mm"
   height="97.674088mm"
   viewBox="0 0 106.4056 97.674088"
   version="1.1"
   id="svg1084"
   inkscape:version="1.0.2 (e86c870879, 2021-01-15)"
   sodipodi:docname="box-in-security.svg">
  <defs
     id="defs1078" />
  <sodipodi:namedview
     id="base"
     pagecolor="#ffffff"
     bordercolor="#666666"
     borderopacity="1.0"
     inkscape:pageopacity="0.0"
     inkscape:pageshadow="2"
     inkscape:zoom="0.35"
     inkscape:cx="231.6346"
     inkscape:cy="134.80432"
     inkscape:document-units="mm"
     inkscape:current-layer="layer1"
     inkscape:document-rotation="0"
     showgrid="false"
     inkscape:window-width="1024"
     inkscape:window-height="717"
     inkscape:window-x="0"
     inkscape:window-y="25"
     inkscape:window-maximized="0" />
  <metadata
     id="metadata1081">
    <rdf:RDF>
      <cc:Work
         rdf:about="">
        <dc:format>image/svg+xml</dc:format>
        <dc:type
           rdf:resource="http://purl.org/dc/dcmitype/StillImage" />
        <dc:title></dc:title>
      </cc:Work>
    </rdf:RDF>
  </metadata>
  <g
     inkscape:label="Layer 1"
     inkscape:groupmode="layer"
     id="layer1"
     transform="translate(-44.546679,-112.49969)">
    <g
       id="g1138"
       transform="matrix(0.35277777,0,0,-0.35277777,121.37783,197.96789)">
      <path
         d="m 0,0 c 2.947,-34.024 8.195,-65.348 21.416,-94.193 8.201,-17.894 19.238,-32.55 35.17,-41.942 6.904,-4.071 13.06,-4.047 19.938,-0.085 17.541,10.103 29.08,26.58 37.404,46.417 12.166,28.995 17.092,60.115 19.631,91.936 0.507,6.359 -2.765,6.741 -6.506,8.213 C 108.532,17.635 90.152,25.409 71.607,32.616 68.67,33.757 64.845,33.9 61.942,32.76 43.879,25.666 26.122,17.48 7.915,10.96 1.29,8.588 -2.181,6.425 0,0 m -42.635,95.878 c -2.503,-0.422 -3.983,-0.524 -5.396,-0.934 -25.844,-7.486 -51.638,-15.211 -77.55,-22.362 -5.609,-1.548 -6.965,-4.498 -6.934,-10.753 0.215,-43.423 0.106,-86.847 0.132,-130.271 0.002,-2.808 0.259,-5.615 0.438,-9.238 3.336,0 6.05,-10e-4 8.765,0 23.904,0.002 47.814,0.364 71.708,-0.203 7.531,-0.178 9.047,2.706 8.997,10.862 -0.316,50.999 -0.16,102.001 -0.16,153.002 z m 73.85,-56.647 v 59.343 c 11.38,-3.342 21.83,-6.248 32.158,-9.65 1.272,-0.419 2.465,-3.391 2.695,-5.339 0.441,-3.724 0.708,-7.688 0.084,-11.331 -2.149,-12.542 3.389,-18.692 12.505,-23.525 19.781,-10.487 40.103,-18.786 61.573,-22.99 5.802,-1.135 9.343,-3.989 9.105,-11.294 -1.517,-46.64 -8.364,-91.653 -31.233,-131.406 -10.905,-18.955 -25.466,-33.127 -44.577,-39.703 -4.459,-1.534 -10.045,-1.321 -14.517,0.295 -20.964,7.575 -36.176,23.938 -46.985,45.454 -4.166,8.293 -8.841,10.65 -16.741,10.578 -46.083,-0.418 -92.171,-0.03 -138.254,-0.398 -7.237,-0.057 -9.354,2.131 -9.303,10.685 0.336,56.584 0.279,113.171 0.057,169.756 -0.027,6.849 1.861,9.473 7.604,11.088 31.779,8.936 63.419,18.532 95.179,27.559 3.943,1.12 8.466,1.026 12.464,0.066 10.089,-2.422 19.962,-6.059 30.061,-8.405 5.122,-1.191 6.343,-3.945 6.251,-9.494 -0.261,-15.746 0.213,-31.512 -0.237,-47.245 -0.183,-6.438 1.833,-8.8 6.978,-9.544 7.952,-1.149 15.848,-2.808 25.133,-4.5"
         style="fill:#0d2249;fill-opacity:1;fill-rule:nonzero;stroke:none"
         id="path90"
         transform="translate(-65.513199,123.10603)" />
      <path
         d="m 0,0 v -9.897 c 0,-51.001 -0.156,-102.003 0.16,-153.002 0.05,-8.156 -1.466,-11.04 -8.997,-10.862 -23.894,0.566 -47.805,0.205 -71.708,0.202 -2.715,0 -5.429,0 -8.766,0 -0.178,3.624 -0.436,6.431 -0.438,9.239 -0.025,43.424 0.083,86.848 -0.131,130.27 -0.032,6.256 1.324,9.206 6.934,10.754 25.912,7.15 51.706,14.876 77.55,22.362 C -3.983,-0.524 -2.503,-0.423 0,0"
         style="fill:#ffffff;fill-opacity:1;fill-rule:nonzero;stroke:none"
         id="path418"
         transform="translate(-108.148,218.98438)" />
      <path
         d="m 0,0 c -13.329,3.845 -22.693,12.763 -30.187,24.419 -13.656,21.244 -19.003,46.067 -22.053,71.727 -0.955,8.031 -1.315,16.157 -1.86,23.108 18.534,7.281 36.079,14.174 54.1,21.254 z"
         style="fill:#0d2249;fill-opacity:1;fill-rule:nonzero;stroke:none"
         id="path520" />
    </g>
  </g>
</svg>
