<?xml version="1.0" encoding="UTF-8" standalone="no"?>
<svg
   xmlns:dc="http://purl.org/dc/elements/1.1/"
   xmlns:cc="http://creativecommons.org/ns#"
   xmlns:rdf="http://www.w3.org/1999/02/22-rdf-syntax-ns#"
   xmlns:svg="http://www.w3.org/2000/svg"
   xmlns="http://www.w3.org/2000/svg"
   xmlns:sodipodi="http://sodipodi.sourceforge.net/DTD/sodipodi-0.dtd"
   xmlns:inkscape="http://www.inkscape.org/namespaces/inkscape"
   width="119.29675mm"
   height="113.37923mm"
   viewBox="0 0 119.29675 113.37923"
   version="1.1"
   id="svg1231"
   inkscape:version="1.0.2 (e86c870879, 2021-01-15)"
   sodipodi:docname="box-correct.svg">
  <defs
     id="defs1225" />
  <sodipodi:namedview
     id="base"
     pagecolor="#ffffff"
     bordercolor="#666666"
     borderopacity="1.0"
     inkscape:pageopacity="0.0"
     inkscape:pageshadow="2"
     inkscape:zoom="0.35"
     inkscape:cx="225.44265"
     inkscape:cy="214.25995"
     inkscape:document-units="mm"
     inkscape:current-layer="layer1"
     inkscape:document-rotation="0"
     showgrid="false"
     inkscape:window-width="1024"
     inkscape:window-height="717"
     inkscape:window-x="0"
     inkscape:window-y="25"
     inkscape:window-maximized="0" />
  <metadata
     id="metadata1228">
    <rdf:RDF>
      <cc:Work
         rdf:about="">
        <dc:format>image/svg+xml</dc:format>
        <dc:type
           rdf:resource="http://purl.org/dc/dcmitype/StillImage" />
        <dc:title></dc:title>
      </cc:Work>
    </rdf:RDF>
  </metadata>
  <g
     inkscape:label="Layer 1"
     inkscape:groupmode="layer"
     id="layer1"
     transform="translate(-46.184964,-91.477054)">
    <g
       id="g1195"
       transform="matrix(0.35277777,0,0,-0.35277777,116.53781,197.0284)">
      <path
         d="m 0,0 c 8.328,-9.904 15.692,-18.088 22.436,-26.909 3.708,-4.852 7.717,-6.417 13.117,-6.293 14.567,0.336 29.144,0.124 43.717,0.129 3.124,10e-4 6.248,0 11.584,0 C 81.772,-22.2 74.586,-13.002 66.775,-4.58 64.158,-1.757 59.984,0.478 56.462,0.597 40.396,1.142 24.308,0.863 8.227,0.812 6.104,0.806 3.982,0.407 0,0 m -179.645,-31.065 c 0.286,-0.679 0.57,-1.357 0.855,-2.036 h 9.666 c 29.925,0.01 59.892,1.119 89.757,-0.424 15.555,-0.803 27.117,3.711 36.161,18.225 3.207,5.146 7.512,9.374 11.554,14.314 -1.794,1.131 -2.22,1.633 -2.646,1.634 -38.222,0.079 -76.442,0.147 -114.664,0.071 -1.861,-0.003 -4.251,-0.679 -5.495,-2.099 -8.53,-9.737 -16.82,-19.757 -25.188,-29.685 m 163.962,-72.698 v 94.345 c -10.006,-10.814 -20.322,-21.386 -30.007,-32.684 -4.594,-5.358 -9.205,-7.749 -15.801,-7.629 -23.664,0.426 -47.338,0.281 -71.005,-0.02 -2.317,-0.03 -6.572,-2.534 -6.615,-4.019 -0.477,-16.497 -0.3,-33.018 -0.3,-49.993 z m -143.115,-22.189 v 75.976 h -56.31 c 6.823,8.313 12.198,14.969 17.673,21.511 11.391,13.608 22.673,27.347 34.393,40.565 2.366,2.669 6.469,4.612 9.777,4.625 72.015,0.265 144.031,0.249 216.046,0.076 2.976,-0.008 6.826,-1.05 8.785,-3.325 16.885,-19.609 33.432,-39.606 50.052,-59.519 0.472,-0.564 0.639,-1.47 1.438,-3.398 H 68.437 v -76.511 z"
         style="fill:#0d2249;fill-opacity:1;fill-rule:nonzero;stroke:none"
         id="path114"
         transform="translate(15.682606,103.76274)" />
      <path
         d="m 0,0 c -21.172,-23.732 -42.082,-47.172 -63.4,-71.068 -8.512,13.95 -16.603,27.209 -25.383,41.599 -6.211,-6.604 -11.79,-12.535 -18.092,-19.236 12.202,-12.337 23.689,-23.985 35.208,-35.589 8.771,-8.837 8.81,-8.847 18.577,-1.382 19.954,15.249 39.881,30.548 59.834,45.799 2.03,1.552 4.166,2.92 6.415,4.486 8.432,-36.034 -12.44,-77.664 -45.149,-91.22 -33.986,-14.085 -72.135,4.566 -87.478,42.923 -14.903,37.26 -3.171,83.705 28.655,104.984 C -60.525,41.547 -19.598,32.446 0,0"
         style="fill:#0d2249;fill-opacity:1;fill-rule:nonzero;stroke:none"
         id="path148"
         transform="translate(25.178732,267.16509)" />
      <path
         d="m 0,0 h -123.729 c 0,16.975 -0.176,33.496 0.3,49.993 0.043,1.485 4.298,3.988 6.616,4.019 23.667,0.301 47.34,0.446 71.004,0.019 6.597,-0.119 11.207,2.272 15.801,7.63 C -20.322,72.959 -10.007,83.53 0,94.345 Z"
         style="fill:#ffffff;fill-opacity:1;fill-rule:nonzero;stroke:none"
         id="path438" />
    </g>
  </g>
</svg>
