<?xml version="1.0" encoding="UTF-8" standalone="no"?>
<svg
   xmlns:dc="http://purl.org/dc/elements/1.1/"
   xmlns:cc="http://creativecommons.org/ns#"
   xmlns:rdf="http://www.w3.org/1999/02/22-rdf-syntax-ns#"
   xmlns:svg="http://www.w3.org/2000/svg"
   xmlns="http://www.w3.org/2000/svg"
   xmlns:sodipodi="http://sodipodi.sourceforge.net/DTD/sodipodi-0.dtd"
   xmlns:inkscape="http://www.inkscape.org/namespaces/inkscape"
   width="98.931496mm"
   height="103.34016mm"
   viewBox="0 0 98.931496 103.34016"
   version="1.1"
   id="svg612"
   inkscape:version="1.0.2 (e86c870879, 2021-01-15)"
   sodipodi:docname="box.svg">
  <defs
     id="defs606" />
  <sodipodi:namedview
     id="base"
     pagecolor="#ffffff"
     bordercolor="#666666"
     borderopacity="1.0"
     inkscape:pageopacity="0.0"
     inkscape:pageshadow="2"
     inkscape:zoom="0.35"
     inkscape:cx="361.24287"
     inkscape:cy="401.00279"
     inkscape:document-units="mm"
     inkscape:current-layer="layer1"
     inkscape:document-rotation="0"
     showgrid="false"
     inkscape:window-width="1024"
     inkscape:window-height="717"
     inkscape:window-x="0"
     inkscape:window-y="25"
     inkscape:window-maximized="0" />
  <metadata
     id="metadata609">
    <rdf:RDF>
      <cc:Work
         rdf:about="">
        <dc:format>image/svg+xml</dc:format>
        <dc:type
           rdf:resource="http://purl.org/dc/dcmitype/StillImage" />
        <dc:title></dc:title>
      </cc:Work>
    </rdf:RDF>
  </metadata>
  <g
     inkscape:label="Layer 1"
     inkscape:groupmode="layer"
     id="layer1"
     transform="translate(-10.25449,-42.068012)">
    <g
       id="g586"
       transform="matrix(0.35277777,0,0,-0.35277777,29.56523,110.92506)">
      <path
         d="m 0,0 c 7.982,1.726 14.765,3.61 21.644,4.556 6.341,0.87 7.867,4.333 7.856,11.489 -0.085,53.546 0.064,107.095 0.604,160.637 0.092,9.131 -0.782,14.648 -10.14,15.232 -6.413,0.4 -12.709,3.313 -19.964,5.357 z m -77.208,-18.108 c 12.121,2.862 22.64,5.958 33.325,7.632 6.157,0.965 7.02,4.254 6.992,10.348 -0.174,37.222 -0.08,74.446 -0.093,111.67 -0.01,29.455 -0.209,58.912 0.054,88.364 0.058,6.501 -1.672,9.377 -7.221,10.596 -8.14,1.786 -16.217,4.177 -24.146,6.977 -10.23,3.612 -10.328,3.881 -10.17,-8.917 0.319,-25.882 1.086,-51.759 1.175,-77.64 0.065,-19.06 -0.958,-38.123 -0.942,-57.184 0.018,-21.526 0.698,-43.051 1.005,-64.577 0.124,-8.665 0.021,-17.335 0.021,-27.269 m -25.656,0.111 c 0.211,3.959 0.463,6.517 0.465,9.074 0.019,32.656 -0.095,65.314 0.017,97.969 0.141,41.017 0.373,82.034 0.779,123.049 0.074,7.387 -2.014,9.579 -8.057,6.963 -4.682,-2.027 -9.452,-3.873 -14.292,-5.304 -26.234,-7.754 -52.467,-15.52 -78.789,-22.86 -4.884,-1.363 -6.418,-3.532 -6.356,-9.366 0.274,-25.946 0.076,-51.898 0.068,-77.848 -0.01,-29.741 0.16,-59.484 -0.127,-89.221 -0.06,-6.231 1.665,-8.814 6.866,-9.713 7.454,-1.288 14.815,-3.291 22.216,-4.992 25.357,-5.829 50.715,-11.659 77.21,-17.751 M 50.184,94.561 c 0,-33.195 0.092,-67.611 -0.205,-102.022 -0.02,-2.331 -2.686,-6.246 -4.606,-6.705 -44.37,-10.608 -88.764,-21.104 -133.283,-30.816 -5.8,-1.266 -12.359,1.586 -18.489,2.984 -38.027,8.676 -75.999,17.671 -114.07,26.071 -7.212,1.591 -9.665,4.629 -9.613,13.522 0.387,66.529 0.372,133.064 0.068,199.594 -0.038,8.317 2.082,11.772 9.056,13.54 21.853,5.541 43.618,11.579 65.315,17.894 19.904,5.793 39.633,12.393 59.541,18.165 3.952,1.146 8.568,1.114 12.535,-0.008 35.636,-10.077 71.211,-20.448 106.765,-30.908 7.518,-2.211 14.84,-5.302 22.328,-7.668 4.408,-1.392 4.862,-4.75 4.825,-9.259 -0.267,-32.936 -0.375,-65.874 -0.515,-98.812 -0.006,-1.451 0.175,-2.904 0.348,-5.572"
         style="fill:#0d2249;fill-opacity:1;fill-rule:nonzero;stroke:none"
         id="path58"
         transform="translate(175.3437,-52.449229)" />
      <path
         d="m 0,0 v 41.207 c 2.905,1.134 5.138,2.005 8.839,3.45 -5.204,8.901 -9.894,16.921 -15.229,26.044 -5.168,-9.972 -9.745,-18.803 -14.534,-28.043 3.371,-0.788 5.675,-1.327 8.612,-2.014 V 1.602 C -8.189,1.065 -4.763,0.62 0,0 m -20.631,-8.263 c -2,-12.635 -1.593,-13.166 8.23,-14.787 12.415,-2.049 24.796,-4.367 37.205,-6.457 9.614,-1.62 19.25,-3.069 29.363,-4.671 v 15.996 c -1.462,0.485 -2.401,0.971 -3.375,1.092 -23.664,2.948 -47.333,5.859 -71.423,8.827 m 61.93,4.131 c 0,13.244 0.397,24.888 -0.128,36.475 -0.407,8.989 1.024,15.006 12.683,12.889 C 46.222,56.47 39.972,65.672 32.956,76.002 26.947,64.991 21.636,55.259 15.122,43.321 25.139,44.529 25.573,39.492 25.431,33.254 25.167,21.755 25.355,10.241 25.355,-1.896 30.724,-2.648 35.372,-3.301 41.299,-4.132 M 72.48,-70.446 c -26.496,6.092 -51.853,11.922 -77.21,17.751 -7.401,1.701 -14.763,3.704 -22.216,4.992 -5.201,0.898 -6.927,3.481 -6.867,9.713 0.288,29.737 0.118,59.48 0.128,89.22 0.008,25.951 0.206,51.903 -0.068,77.849 -0.062,5.834 1.471,8.003 6.356,9.365 26.321,7.341 52.555,15.107 78.789,22.861 4.84,1.43 9.609,3.277 14.292,5.303 6.043,2.617 8.13,0.425 8.057,-6.962 C 73.334,118.631 73.103,77.614 72.962,36.597 72.85,3.941 72.963,-28.716 72.944,-61.372 72.943,-63.93 72.69,-66.487 72.48,-70.446"
         style="fill:#ffffff;fill-opacity:1;fill-rule:nonzero;stroke:none"
         id="path370"
         transform="translate(-2.0358151e-6)" />
      <path
         d="m 0,0 c 0,9.935 0.103,18.604 -0.021,27.27 -0.306,21.526 -0.986,43.05 -1.004,64.577 -0.017,19.06 1.006,38.124 0.941,57.183 -0.089,25.881 -0.856,51.758 -1.175,77.64 -0.158,12.799 -0.06,12.529 10.171,8.917 7.928,-2.8 16.005,-5.191 24.145,-6.977 5.549,-1.218 7.28,-4.094 7.222,-10.595 C 40.016,188.562 40.214,159.105 40.225,129.65 40.238,92.427 40.143,55.202 40.317,17.98 40.346,11.887 39.482,8.598 33.325,7.633 22.64,5.958 12.121,2.862 0,0"
         style="fill:#ffffff;fill-opacity:1;fill-rule:nonzero;stroke:none"
         id="path374"
         transform="translate(98.135198,-70.557605)" />
      <path
         d="m 0,0 v 197.271 c 7.255,-2.044 13.551,-4.957 19.964,-5.357 9.358,-0.584 10.232,-6.101 10.14,-15.232 C 29.564,123.14 29.415,69.591 29.5,16.045 29.511,8.889 27.985,5.426 21.644,4.556 14.765,3.61 7.982,1.726 0,0"
         style="fill:#ffffff;fill-opacity:1;fill-rule:nonzero;stroke:none"
         id="path378"
         transform="translate(175.3437,-52.449229)" />
      <path
         d="m 0,0 c -5.927,0.831 -10.575,1.483 -15.944,2.236 0,12.137 -0.188,23.651 0.076,35.15 0.142,6.238 -0.292,11.275 -10.309,10.067 6.514,11.938 11.825,21.67 17.834,32.681 C -1.327,69.804 4.923,60.602 12.556,49.364 0.896,51.48 -0.535,45.464 -0.128,36.475 0.397,24.888 0,13.244 0,0"
         style="fill:#0d2249;fill-opacity:1;fill-rule:nonzero;stroke:none"
         id="path500"
         transform="translate(41.298801,-4.1318283)" />
      <path
         d="m 0,0 c 24.091,-2.969 47.759,-5.879 71.424,-8.827 0.973,-0.121 1.912,-0.608 3.374,-1.092 v -15.996 c -10.113,1.602 -19.749,3.051 -29.362,4.671 -12.41,2.09 -24.791,4.408 -37.206,6.457 C -1.592,-13.166 -2,-12.636 0,0"
         style="fill:#0d2249;fill-opacity:1;fill-rule:nonzero;stroke:none"
         id="path504"
         transform="translate(-20.6314,-8.2626784)" />
      <path
         d="m 0,0 c -4.763,0.62 -8.189,1.065 -12.312,1.602 v 39.042 c -2.937,0.687 -5.241,1.226 -8.612,2.014 4.789,9.24 9.366,18.071 14.534,28.043 C -1.055,61.578 3.635,53.558 8.839,44.657 5.138,43.212 2.905,42.341 0,41.207 Z"
         style="fill:#0d2249;fill-opacity:1;fill-rule:nonzero;stroke:none"
         id="path508" />
    </g>
  </g>
</svg>
