<?xml version="1.0" encoding="UTF-8" standalone="no"?>
<svg
   xmlns:dc="http://purl.org/dc/elements/1.1/"
   xmlns:cc="http://creativecommons.org/ns#"
   xmlns:rdf="http://www.w3.org/1999/02/22-rdf-syntax-ns#"
   xmlns:svg="http://www.w3.org/2000/svg"
   xmlns="http://www.w3.org/2000/svg"
   xmlns:sodipodi="http://sodipodi.sourceforge.net/DTD/sodipodi-0.dtd"
   xmlns:inkscape="http://www.inkscape.org/namespaces/inkscape"
   width="107.41924mm"
   height="78.801544mm"
   viewBox="0 0 107.41924 78.801544"
   version="1.1"
   id="svg602"
   inkscape:version="1.0.2 (e86c870879, 2021-01-15)"
   sodipodi:docname="contanier.svg">
  <defs
     id="defs596" />
  <sodipodi:namedview
     id="base"
     pagecolor="#ffffff"
     bordercolor="#666666"
     borderopacity="1.0"
     inkscape:pageopacity="0.0"
     inkscape:pageshadow="2"
     inkscape:zoom="0.7"
     inkscape:cx="299.88268"
     inkscape:cy="263.56657"
     inkscape:document-units="mm"
     inkscape:current-layer="layer1"
     inkscape:document-rotation="0"
     showgrid="false"
     inkscape:window-width="1024"
     inkscape:window-height="717"
     inkscape:window-x="0"
     inkscape:window-y="25"
     inkscape:window-maximized="0" />
  <metadata
     id="metadata599">
    <rdf:RDF>
      <cc:Work
         rdf:about="">
        <dc:format>image/svg+xml</dc:format>
        <dc:type
           rdf:resource="http://purl.org/dc/dcmitype/StillImage" />
        <dc:title></dc:title>
      </cc:Work>
    </rdf:RDF>
  </metadata>
  <g
     inkscape:label="Layer 1"
     inkscape:groupmode="layer"
     id="layer1"
     transform="translate(-19.617764,-47.533756)">
    <path
       d="m 114.74411,116.07194 c 0,-16.215433 -0.007,-32.041397 0.006,-47.86736 0.002,-3.478036 -2.47755,-2.258484 -3.91195,-2.626078 -1.8796,-0.481895 -1.49789,1.476375 -1.50001,2.694869 -0.024,15.111942 -0.0205,30.223883 -0.008,45.335829 7e-4,0.78951 0.14428,1.57868 0.23036,2.46274 z m -17.557397,0.004 V 63.651982 c -1.678517,-0.253647 -3.27272,-0.494594 -5.011914,-0.757413 v 53.180891 z m -18.808347,-0.0138 V 60.90843 C 76.67586,60.701702 75.073544,60.507321 73.307538,60.292833 V 116.06171 Z M 36.640522,64.901874 c -2.285295,0.864658 -4.174772,1.726495 -6.129867,2.277533 -1.905,0.537281 -2.414411,1.726495 -2.397125,3.934178 0.100542,12.946239 0.09984,25.893536 0.06491,38.840125 -0.0187,6.77051 -0.08008,6.65445 5.640917,6.75958 2.287411,0.042 3.043767,-0.66711 3.021894,-3.44699 -0.11818,-15.104185 -0.05433,-30.209423 -0.06103,-45.314309 -3.53e-4,-0.805745 -0.07161,-1.611842 -0.1397,-3.050117 m 18.836922,-7.244997 c -2.84727,1.063978 -5.250039,2.087739 -7.714545,2.842683 -1.927577,0.590198 -2.674055,1.676753 -2.606675,4.09187 0.162631,5.857522 0.05327,11.724569 0.05221,17.587383 -0.0018,10.491963 -0.03598,20.983927 0.04339,31.475187 0.0074,0.98495 0.676275,2.7746 1.125714,2.8127 2.975328,0.254 5.974292,0.13158 9.099903,0.13158 z M 127.037,57.795872 V 126.3353 H 19.6451 c 0,-3.56305 -0.0021,-7.12893 3.53e-4,-10.69481 0.0049,-7.28945 0.01552,-14.57889 0.01799,-21.868342 0.0032,-9.864019 0.06315,-19.729096 -0.0448,-29.591704 -0.0254,-2.302934 0.49283,-3.439231 2.487083,-4.18077 9.970911,-3.7084 19.952758,-7.403041 29.793494,-11.539361 4.077405,-1.714147 7.894108,-0.630061 11.788774,-0.07126 20.61845,2.958395 41.222786,6.049786 61.831716,9.099197 0.43674,0.06421 0.86854,0.174625 1.51729,0.307623"
       style="fill:#0d2249;fill-opacity:1;fill-rule:nonzero;stroke:none;stroke-width:0.352778"
       id="path30" />
  </g>
</svg>
