<?xml version="1.0" encoding="UTF-8" standalone="no"?>
<svg
   xmlns:dc="http://purl.org/dc/elements/1.1/"
   xmlns:cc="http://creativecommons.org/ns#"
   xmlns:rdf="http://www.w3.org/1999/02/22-rdf-syntax-ns#"
   xmlns:svg="http://www.w3.org/2000/svg"
   xmlns="http://www.w3.org/2000/svg"
   xmlns:sodipodi="http://sodipodi.sourceforge.net/DTD/sodipodi-0.dtd"
   xmlns:inkscape="http://www.inkscape.org/namespaces/inkscape"
   width="112.55109mm"
   height="107.10681mm"
   viewBox="0 0 112.55109 107.10681"
   version="1.1"
   id="svg1523"
   inkscape:version="1.0.2 (e86c870879, 2021-01-15)"
   sodipodi:docname="storage.svg">
  <defs
     id="defs1517" />
  <sodipodi:namedview
     id="base"
     pagecolor="#ffffff"
     bordercolor="#666666"
     borderopacity="1.0"
     inkscape:pageopacity="0.0"
     inkscape:pageshadow="2"
     inkscape:zoom="0.35"
     inkscape:cx="329.83785"
     inkscape:cy="425.26373"
     inkscape:document-units="mm"
     inkscape:current-layer="layer1"
     inkscape:document-rotation="0"
     showgrid="false"
     inkscape:window-width="1024"
     inkscape:window-height="717"
     inkscape:window-x="0"
     inkscape:window-y="25"
     inkscape:window-maximized="0" />
  <metadata
     id="metadata1520">
    <rdf:RDF>
      <cc:Work
         rdf:about="">
        <dc:format>image/svg+xml</dc:format>
        <dc:type
           rdf:resource="http://purl.org/dc/dcmitype/StillImage" />
        <dc:title></dc:title>
      </cc:Work>
    </rdf:RDF>
  </metadata>
  <g
     inkscape:label="Layer 1"
     inkscape:groupmode="layer"
     id="layer1"
     transform="translate(-18.563736,-35.648971)">
    <g
       id="g1499"
       transform="matrix(0.35277777,0,0,-0.35277777,-868.05116,217.39563)">
      <path
         d="m 0,0 c 12.082,0 24.168,-0.194 36.241,0.188 2.05,0.066 4.04,2.61 6.058,4.009 C 40.361,5.349 38.431,7.485 36.485,7.503 12.323,7.724 -11.842,7.73 -36.004,7.452 -38.015,7.43 -40.005,4.943 -42.005,3.602 -39.833,2.4 -37.683,0.226 -35.487,0.162 -23.664,-0.182 -11.83,0 0,0 m -0.049,21.616 v 0.058 c 12.08,0 24.165,-0.192 36.237,0.185 2.049,0.064 4.042,2.565 6.063,3.939 -1.922,1.263 -3.836,3.603 -5.768,3.623 -24.158,0.254 -48.32,0.274 -72.477,-0.014 -2.03,-0.024 -4.037,-2.704 -6.054,-4.15 2.171,-1.213 4.321,-3.411 6.518,-3.476 11.821,-0.347 23.653,-0.165 35.481,-0.165 m 100.956,-88.888 c 0.196,3.537 0.459,6.095 0.459,8.653 0.011,58.338 -0.132,116.678 0.136,175.014 0.033,7.299 -2.167,10.886 -7.639,13.866 -29.6,16.115 -58.997,32.737 -88.634,48.758 -2.876,1.554 -7.47,1.533 -10.351,-0.026 -29.866,-16.157 -59.496,-32.899 -89.323,-49.157 -5.042,-2.748 -6.787,-6.151 -6.763,-12.644 0.221,-58.337 0.113,-116.675 0.13,-175.013 0.001,-2.83 0.25,-5.66 0.403,-8.9 h 46.483 v 10.788 c -0.002,26.253 -0.018,52.505 0,78.757 0.01,15.72 4.1,20.536 17.392,20.544 24.681,0.014 49.362,0.026 74.041,0.01 12.888,-0.008 17.247,-5.015 17.263,-19.865 0.028,-27.711 -0.088,-55.423 0.188,-83.13 0.027,-2.569 2.376,-7.268 3.753,-7.321 14.009,-0.547 28.039,-0.334 42.462,-0.334 m 24.907,178.024 V -67.305 c 7.394,0 14.319,0.063 21.242,-0.014 10.869,-0.121 13.647,-3.914 12.274,-18.307 -5.76,0 -11.692,-0.004 -17.625,0.001 -97.213,0.073 -194.425,0.112 -291.638,0.359 -3.48,0.009 -9.299,-3.429 -9.451,5.435 -0.131,7.656 3.063,11.978 9.957,12.382 5.781,0.339 11.602,0.444 17.376,0.062 4.975,-0.328 6.624,1.847 6.541,7.518 -0.233,16.048 -0.098,32.101 -0.097,48.153 0.002,37.356 0.01,74.712 0.017,112.068 v 9.912 c -2.718,-1.112 -4.51,-1.668 -6.173,-2.552 -9.502,-5.053 -17.088,-2.99 -20.841,5.754 -3.776,8.798 -0.729,17.403 8.405,22.778 38.376,22.585 76.794,45.076 115.199,67.594 7.188,4.215 14.133,9.266 21.684,12.266 4.525,1.796 10.877,2.396 14.926,0.072 46.242,-26.537 92.222,-53.686 138.206,-80.822 8.135,-4.799 10.696,-13.604 7.001,-21.877 -3.7,-8.289 -11.263,-10.804 -19.419,-6.493 -1.992,1.053 -4.023,2.003 -7.584,3.768"
         style="fill:#0d2249;fill-opacity:1;fill-rule:nonzero;stroke:none"
         id="path50"
         transform="translate(2672.627,297.49223)" />
      <path
         d="m 2752.688,412.018 h -33.772 v -31.494 h 33.772 z m -125.774,0.086 h -33.51 v -31.858 h 33.51 z m 11.553,0.591 v -32.079 h 69.413 c 0,9.474 0.255,18.218 -0.206,26.911 -0.097,1.82 -2.814,4.922 -4.351,4.946 -21.358,0.328 -42.721,0.222 -64.856,0.222 M 2773.534,230.22 c -14.423,0 -28.453,-0.213 -42.462,0.334 -1.377,0.053 -3.726,4.753 -3.753,7.321 -0.276,27.707 -0.16,55.419 -0.188,83.13 -0.016,14.85 -4.375,19.857 -17.263,19.865 -24.68,0.016 -49.36,0.004 -74.041,-0.01 -13.292,-0.007 -17.382,-4.824 -17.392,-20.544 -0.018,-26.252 0,-52.504 0,-78.756 v -10.789 h -46.483 c -0.153,3.24 -0.402,6.07 -0.403,8.9 -0.017,58.338 0.091,116.677 -0.13,175.014 -0.024,6.492 1.721,9.895 6.763,12.643 29.827,16.258 59.457,33 89.323,49.157 2.881,1.559 7.474,1.58 10.35,0.026 29.638,-16.021 59.035,-32.643 88.635,-48.758 5.472,-2.98 7.672,-6.566 7.639,-13.866 -0.268,-58.336 -0.125,-116.676 -0.136,-175.014 0,-2.558 -0.264,-5.116 -0.459,-8.653"
         style="fill:#ffffff;fill-opacity:1;fill-rule:nonzero;stroke:none"
         id="path346" />
      <path
         d="m 0,0 c 22.135,0 43.498,0.105 64.856,-0.223 1.538,-0.023 4.254,-3.126 4.351,-4.945 0.461,-8.693 0.206,-17.437 0.206,-26.911 H 0 Z"
         style="fill:#0d2249;fill-opacity:1;fill-rule:nonzero;stroke:none"
         id="path492"
         transform="translate(2638.4668,412.69531)" />
      <path
         d="m 2626.914,380.246 h -33.51 v 31.858 h 33.51 z"
         style="fill:#0d2249;fill-opacity:1;fill-rule:nonzero;stroke:none"
         id="path494" />
      <path
         d="m 2752.688,380.523 h -33.772 v 31.494 h 33.772 z"
         style="fill:#0d2249;fill-opacity:1;fill-rule:nonzero;stroke:none"
         id="path496" />
    </g>
  </g>
</svg>
